<?xml version="1.0" encoding="UTF-8" standalone="no"?>
<svg
   xmlns:dc="http://purl.org/dc/elements/1.1/"
   xmlns:cc="http://creativecommons.org/ns#"
   xmlns:rdf="http://www.w3.org/1999/02/22-rdf-syntax-ns#"
   xmlns:svg="http://www.w3.org/2000/svg"
   xmlns="http://www.w3.org/2000/svg"
   viewBox="0 0 341.33334 341.33334"
   height="341.33334"
   width="341.33334"
   xml:space="preserve"
   id="svg5378"
   version="1.1"><metadata
     id="metadata5384"><rdf:RDF><cc:Work
         rdf:about=""><dc:format>image/svg+xml</dc:format><dc:type
           rdf:resource="http://purl.org/dc/dcmitype/StillImage" /><dc:title></dc:title></cc:Work></rdf:RDF></metadata><defs
     id="defs5382"><clipPath
       id="clipPath5394"
       clipPathUnits="userSpaceOnUse"><path
         id="path5392"
         d="M 0,256 H 256 V 0 H 0 Z" /></clipPath></defs><g
     transform="matrix(1.3333333,0,0,-1.3333333,0,341.33333)"
     id="g5386"><g
       id="g5388"><g
         clip-path="url(#clipPath5394)"
         id="g5390"><g
           transform="translate(251.214,121.1153)"
           id="g5396"><path
             id="path5398"
             style="fill:#1267ad;fill-opacity:1;fill-rule:nonzero;stroke:none"
             d="m 0,0 c 0,-0.585 -0.474,-1.059 -1.059,-1.059 -0.585,0 -1.059,0.474 -1.059,1.059 0,0.585 0.474,1.059 1.059,1.059 C -0.474,1.059 0,0.585 0,0" /></g><g
           transform="translate(251.6012,111.9434)"
           id="g5400"><path
             id="path5402"
             style="fill:#1267ad;fill-opacity:1;fill-rule:nonzero;stroke:none"
             d="m 0,0 c 0,-1.429 -1.159,-2.588 -2.588,-2.588 -1.429,0 -2.588,1.159 -2.588,2.588 0,1.429 1.159,2.588 2.588,2.588 C -1.159,2.588 0,1.429 0,0" /></g><g
           transform="translate(250.5329,103.0927)"
           id="g5404"><path
             id="path5406"
             style="fill:#1267ad;fill-opacity:1;fill-rule:nonzero;stroke:none"
             d="m 0,0 c 0,-1.402 -1.137,-2.539 -2.539,-2.539 -1.402,0 -2.539,1.137 -2.539,2.539 0,1.402 1.137,2.539 2.539,2.539 C -1.137,2.539 0,1.402 0,0" /></g><g
           transform="translate(244.2923,84.3786)"
           id="g5408"><path
             id="path5410"
             style="fill:#1267ad;fill-opacity:1;fill-rule:nonzero;stroke:none"
             d="m 0,0 c 0,-1.163 -0.942,-2.105 -2.105,-2.105 -1.163,0 -2.105,0.942 -2.105,2.105 0,1.163 0.942,2.105 2.105,2.105 C -0.942,2.105 0,1.163 0,0" /></g><g
           transform="translate(247.2123,92.1659)"
           id="g5412"><path
             id="path5414"
             style="fill:#1267ad;fill-opacity:1;fill-rule:nonzero;stroke:none"
             d="m 0,0 c 0,-0.958 -0.777,-1.735 -1.735,-1.735 -0.958,0 -1.734,0.777 -1.734,1.735 0,0.958 0.776,1.735 1.734,1.735 C -0.777,1.735 0,0.958 0,0" /></g><g
           transform="translate(244.8814,88.2921)"
           id="g5416"><path
             id="path5418"
             style="fill:#1267ad;fill-opacity:1;fill-rule:nonzero;stroke:none"
             d="m 0,0 c 0,-0.672 -0.545,-1.217 -1.217,-1.217 -0.672,0 -1.217,0.545 -1.217,1.217 0,0.672 0.545,1.217 1.217,1.217 C -0.545,1.217 0,0.672 0,0" /></g><g
           transform="translate(241.1129,76.6208)"
           id="g5420"><path
             id="path5422"
             style="fill:#1267ad;fill-opacity:1;fill-rule:nonzero;stroke:none"
             d="m 0,0 c 0,-0.938 -0.76,-1.699 -1.699,-1.699 -0.938,0 -1.698,0.761 -1.698,1.699 0,0.938 0.76,1.699 1.698,1.699 C -0.76,1.699 0,0.938 0,0" /></g><g
           transform="translate(239.7419,72.6056)"
           id="g5424"><path
             id="path5426"
             style="fill:#1267ad;fill-opacity:1;fill-rule:nonzero;stroke:none"
             d="m 0,0 c 0,-1.128 -0.914,-2.042 -2.042,-2.042 -1.128,0 -2.042,0.914 -2.042,2.042 0,1.128 0.914,2.042 2.042,2.042 C -0.914,2.042 0,1.128 0,0" /></g><g
           transform="translate(227.9129,52.7434)"
           id="g5428"><path
             id="path5430"
             style="fill:#1267ad;fill-opacity:1;fill-rule:nonzero;stroke:none"
             d="m 0,0 c 0,-1.569 -1.272,-2.841 -2.841,-2.841 -1.569,0 -2.842,1.272 -2.842,2.841 0,1.569 1.273,2.841 2.842,2.841 C -1.272,2.841 0,1.569 0,0" /></g><g
           transform="translate(220.1488,45.2386)"
           id="g5432"><path
             id="path5434"
             style="fill:#1267ad;fill-opacity:1;fill-rule:nonzero;stroke:none"
             d="m 0,0 c 0,-1.038 -0.842,-1.88 -1.88,-1.88 -1.038,0 -1.879,0.842 -1.879,1.88 0,1.038 0.841,1.88 1.879,1.88 C -0.842,1.88 0,1.038 0,0" /></g><g
           transform="translate(215.4687,40.279)"
           id="g5436"><path
             id="path5438"
             style="fill:#1267ad;fill-opacity:1;fill-rule:nonzero;stroke:none"
             d="m 0,0 c 0,-1.192 -0.967,-2.159 -2.159,-2.159 -1.193,0 -2.159,0.967 -2.159,2.159 0,1.192 0.966,2.159 2.159,2.159 C -0.967,2.159 0,1.192 0,0" /></g><g
           transform="translate(201.994,29.1181)"
           id="g5440"><path
             id="path5442"
             style="fill:#1267ad;fill-opacity:1;fill-rule:nonzero;stroke:none"
             d="m 0,0 c 0,-0.764 -0.619,-1.384 -1.384,-1.384 -0.764,0 -1.383,0.62 -1.383,1.384 0,0.764 0.619,1.384 1.383,1.384 C -0.619,1.384 0,0.764 0,0" /></g><g
           transform="translate(191.5555,21.5844)"
           id="g5444"><path
             id="path5446"
             style="fill:#1267ad;fill-opacity:1;fill-rule:nonzero;stroke:none"
             d="m 0,0 c 0,-1.543 -1.251,-2.795 -2.795,-2.795 -1.543,0 -2.794,1.252 -2.794,2.795 0,1.543 1.251,2.795 2.794,2.795 C -1.251,2.795 0,1.543 0,0" /></g><g
           transform="translate(179.4077,15.8199)"
           id="g5448"><path
             id="path5450"
             style="fill:#1267ad;fill-opacity:1;fill-rule:nonzero;stroke:none"
             d="m 0,0 c 0,-0.85 -0.689,-1.54 -1.54,-1.54 -0.85,0 -1.539,0.69 -1.539,1.54 0,0.85 0.689,1.54 1.539,1.54 C -0.689,1.54 0,0.85 0,0" /></g><g
           transform="translate(164.0328,10.2846)"
           id="g5452"><path
             id="path5454"
             style="fill:#1267ad;fill-opacity:1;fill-rule:nonzero;stroke:none"
             d="m 0,0 c 0,-0.912 -0.74,-1.652 -1.652,-1.652 -0.912,0 -1.652,0.74 -1.652,1.652 0,0.912 0.74,1.652 1.652,1.652 C -0.74,1.652 0,0.912 0,0" /></g><g
           transform="translate(140.98,6.136)"
           id="g5456"><path
             id="path5458"
             style="fill:#1267ad;fill-opacity:1;fill-rule:nonzero;stroke:none"
             d="m 0,0 c 0,-0.891 -0.722,-1.613 -1.613,-1.613 -0.891,0 -1.613,0.722 -1.613,1.613 0,0.891 0.722,1.613 1.613,1.613 C -0.722,1.613 0,0.891 0,0" /></g><g
           transform="translate(128.3927,4.9522)"
           id="g5460"><path
             id="path5462"
             style="fill:#1267ad;fill-opacity:1;fill-rule:nonzero;stroke:none"
             d="m 0,0 c 0,-0.766 -0.621,-1.387 -1.387,-1.387 -0.766,0 -1.387,0.621 -1.387,1.387 0,0.766 0.621,1.387 1.387,1.387 C -0.621,1.387 0,0.766 0,0" /></g><g
           transform="translate(108.1919,7.3029)"
           id="g5464"><path
             id="path5466"
             style="fill:#1267ad;fill-opacity:1;fill-rule:nonzero;stroke:none"
             d="m 0,0 c 0,-0.881 -0.714,-1.594 -1.594,-1.594 -0.881,0 -1.595,0.713 -1.595,1.594 0,0.881 0.714,1.594 1.595,1.594 C -0.714,1.594 0,0.881 0,0" /></g><g
           transform="translate(98.7251,9.3833)"
           id="g5468"><path
             id="path5470"
             style="fill:#1267ad;fill-opacity:1;fill-rule:nonzero;stroke:none"
             d="m 0,0 c 0,-1.374 -1.114,-2.489 -2.489,-2.489 -1.374,0 -2.488,1.115 -2.488,2.489 0,1.374 1.114,2.489 2.488,2.489 C -1.114,2.489 0,1.374 0,0" /></g><g
           transform="translate(89.5402,12.6513)"
           id="g5472"><path
             id="path5474"
             style="fill:#1267ad;fill-opacity:1;fill-rule:nonzero;stroke:none"
             d="m 0,0 c 0,-1.351 -1.095,-2.447 -2.447,-2.447 -1.351,0 -2.447,1.096 -2.447,2.447 0,1.351 1.096,2.447 2.447,2.447 C -1.095,2.447 0,1.351 0,0" /></g><g
           transform="translate(82.6009,15.0769)"
           id="g5476"><path
             id="path5478"
             style="fill:#1267ad;fill-opacity:1;fill-rule:nonzero;stroke:none"
             d="m 0,0 c 0,-1.267 -1.027,-2.294 -2.294,-2.294 -1.267,0 -2.294,1.027 -2.294,2.294 0,1.267 1.027,2.294 2.294,2.294 C -1.027,2.294 0,1.267 0,0" /></g><g
           transform="translate(62.4584,26.1266)"
           id="g5480"><path
             id="path5482"
             style="fill:#1267ad;fill-opacity:1;fill-rule:nonzero;stroke:none"
             d="m 0,0 c 0,-1.252 -1.015,-2.268 -2.268,-2.268 -1.252,0 -2.267,1.016 -2.267,2.268 0,1.252 1.015,2.268 2.267,2.268 C -1.015,2.268 0,1.252 0,0" /></g><g
           transform="translate(54.3475,30.9353)"
           id="g5484"><path
             id="path5486"
             style="fill:#1267ad;fill-opacity:1;fill-rule:nonzero;stroke:none"
             d="m 0,0 c 0,-0.95 -0.77,-1.72 -1.72,-1.72 -0.95,0 -1.72,0.77 -1.72,1.72 0,0.95 0.77,1.72 1.72,1.72 C -0.77,1.72 0,0.95 0,0" /></g><g
           transform="translate(49.7925,35.7993)"
           id="g5488"><path
             id="path5490"
             style="fill:#1267ad;fill-opacity:1;fill-rule:nonzero;stroke:none"
             d="m 0,0 c 0,-1.395 -1.131,-2.526 -2.526,-2.526 -1.396,0 -2.527,1.131 -2.527,2.526 0,1.395 1.131,2.526 2.527,2.526 C -1.131,2.526 0,1.395 0,0" /></g><g
           transform="translate(38.255,46.8654)"
           id="g5492"><path
             id="path5494"
             style="fill:#1267ad;fill-opacity:1;fill-rule:nonzero;stroke:none"
             d="m 0,0 c 0,-1.135 -0.92,-2.055 -2.055,-2.055 -1.135,0 -2.055,0.92 -2.055,2.055 0,1.135 0.92,2.055 2.055,2.055 C -0.92,2.055 0,1.135 0,0" /></g><g
           transform="translate(28.6193,61.2124)"
           id="g5496"><path
             id="path5498"
             style="fill:#1267ad;fill-opacity:1;fill-rule:nonzero;stroke:none"
             d="m 0,0 c 0,-1.646 -1.334,-2.979 -2.979,-2.979 -1.646,0 -2.98,1.333 -2.98,2.979 0,1.646 1.334,2.979 2.98,2.979 C -1.334,2.979 0,1.646 0,0" /></g><g
           transform="translate(18.1292,80.2825)"
           id="g5500"><path
             id="path5502"
             style="fill:#1267ad;fill-opacity:1;fill-rule:nonzero;stroke:none"
             d="m 0,0 c 0,-1.522 -1.234,-2.756 -2.756,-2.756 -1.523,0 -2.757,1.234 -2.757,2.756 0,1.522 1.234,2.756 2.757,2.756 C -1.234,2.756 0,1.522 0,0" /></g><g
           transform="translate(10.9864,103.1502)"
           id="g5504"><path
             id="path5506"
             style="fill:#1267ad;fill-opacity:1;fill-rule:nonzero;stroke:none"
             d="m 0,0 c 0,-1.597 -1.294,-2.891 -2.891,-2.891 -1.596,0 -2.891,1.294 -2.891,2.891 0,1.597 1.295,2.891 2.891,2.891 C -1.294,2.891 0,1.597 0,0" /></g><g
           transform="translate(8.2825,126.1848)"
           id="g5508"><path
             id="path5510"
             style="fill:#1267ad;fill-opacity:1;fill-rule:nonzero;stroke:none"
             d="m 0,0 c 0,-1.569 -1.272,-2.84 -2.84,-2.84 -1.569,0 -2.84,1.271 -2.84,2.84 0,1.569 1.271,2.84 2.84,2.84 C -1.272,2.84 0,1.569 0,0" /></g><g
           transform="translate(9.8546,143.9203)"
           id="g5512"><path
             id="path5514"
             style="fill:#1267ad;fill-opacity:1;fill-rule:nonzero;stroke:none"
             d="m 0,0 c 0,-1.489 -1.207,-2.696 -2.696,-2.696 -1.488,0 -2.695,1.207 -2.695,2.696 0,1.489 1.207,2.696 2.695,2.696 C -1.207,2.696 0,1.489 0,0" /></g><g
           transform="translate(13.7597,167.0191)"
           id="g5516"><path
             id="path5518"
             style="fill:#1267ad;fill-opacity:1;fill-rule:nonzero;stroke:none"
             d="m 0,0 c 0,-0.669 -0.542,-1.211 -1.211,-1.211 -0.668,0 -1.21,0.542 -1.21,1.211 0,0.669 0.542,1.211 1.21,1.211 C -0.542,1.211 0,0.669 0,0" /></g><g
           transform="translate(23.1656,188.4027)"
           id="g5520"><path
             id="path5522"
             style="fill:#1267ad;fill-opacity:1;fill-rule:nonzero;stroke:none"
             d="m 0,0 c 0,-0.595 -0.483,-1.078 -1.078,-1.078 -0.595,0 -1.077,0.483 -1.077,1.078 0,0.595 0.482,1.078 1.077,1.078 C -0.483,1.078 0,0.595 0,0" /></g><g
           transform="translate(32.3571,202.6775)"
           id="g5524"><path
             id="path5526"
             style="fill:#1267ad;fill-opacity:1;fill-rule:nonzero;stroke:none"
             d="m 0,0 c 0,-0.659 -0.534,-1.194 -1.194,-1.194 -0.659,0 -1.193,0.535 -1.193,1.194 0,0.659 0.534,1.194 1.193,1.194 C -0.534,1.194 0,0.659 0,0" /></g><g
           transform="translate(39.6126,210.4367)"
           id="g5528"><path
             id="path5530"
             style="fill:#1267ad;fill-opacity:1;fill-rule:nonzero;stroke:none"
             d="m 0,0 c 0,-0.725 -0.588,-1.312 -1.312,-1.312 -0.725,0 -1.313,0.587 -1.313,1.312 0,0.725 0.588,1.312 1.313,1.312 C -0.588,1.312 0,0.725 0,0" /></g><g
           transform="translate(53.4884,222.7351)"
           id="g5532"><path
             id="path5534"
             style="fill:#1267ad;fill-opacity:1;fill-rule:nonzero;stroke:none"
             d="m 0,0 c 0,-1.596 -1.294,-2.89 -2.89,-2.89 -1.596,0 -2.89,1.294 -2.89,2.89 0,1.596 1.294,2.89 2.89,2.89 C -1.294,2.89 0,1.596 0,0" /></g><g
           transform="translate(62.4618,229.51)"
           id="g5536"><path
             id="path5538"
             style="fill:#1267ad;fill-opacity:1;fill-rule:nonzero;stroke:none"
             d="m 0,0 c 0,-0.877 -0.711,-1.587 -1.587,-1.587 -0.877,0 -1.588,0.71 -1.588,1.587 0,0.877 0.711,1.587 1.588,1.587 C -0.711,1.587 0,0.877 0,0" /></g><g
           transform="translate(85.122,240.7673)"
           id="g5540"><path
             id="path5542"
             style="fill:#1267ad;fill-opacity:1;fill-rule:nonzero;stroke:none"
             d="m 0,0 c 0,-1.667 -1.351,-3.018 -3.018,-3.018 -1.667,0 -3.019,1.351 -3.019,3.018 0,1.667 1.352,3.018 3.019,3.018 C -1.351,3.018 0,1.667 0,0" /></g><g
           transform="translate(105.3339,247.4969)"
           id="g5544"><path
             id="path5546"
             style="fill:#1267ad;fill-opacity:1;fill-rule:nonzero;stroke:none"
             d="m 0,0 c 0,-1.23 -0.997,-2.228 -2.228,-2.228 -1.23,0 -2.228,0.998 -2.228,2.228 0,1.23 0.998,2.228 2.228,2.228 C -0.997,2.228 0,1.23 0,0" /></g><g
           transform="translate(127.5764,250.0396)"
           id="g5548"><path
             id="path5550"
             style="fill:#1267ad;fill-opacity:1;fill-rule:nonzero;stroke:none"
             d="m 0,0 c 0,-1.323 -1.072,-2.395 -2.395,-2.395 -1.323,0 -2.395,1.072 -2.395,2.395 0,1.323 1.072,2.395 2.395,2.395 C -1.072,2.395 0,1.323 0,0" /></g><g
           transform="translate(142.4732,248.9565)"
           id="g5552"><path
             id="path5554"
             style="fill:#1267ad;fill-opacity:1;fill-rule:nonzero;stroke:none"
             d="m 0,0 c 0,-1.19 -0.965,-2.155 -2.155,-2.155 -1.191,0 -2.156,0.965 -2.156,2.155 0,1.19 0.965,2.156 2.156,2.156 C -0.965,2.156 0,1.19 0,0" /></g><g
           transform="translate(157.8326,247.147)"
           id="g5556"><path
             id="path5558"
             style="fill:#1267ad;fill-opacity:1;fill-rule:nonzero;stroke:none"
             d="m 0,0 c 0,-0.997 -0.808,-1.805 -1.805,-1.805 -0.997,0 -1.806,0.808 -1.806,1.805 0,0.997 0.809,1.805 1.806,1.805 C -0.808,1.805 0,0.997 0,0" /></g><g
           transform="translate(164.676,245.7375)"
           id="g5560"><path
             id="path5562"
             style="fill:#1267ad;fill-opacity:1;fill-rule:nonzero;stroke:none"
             d="m 0,0 c 0,-1.281 -1.038,-2.319 -2.319,-2.319 -1.281,0 -2.32,1.038 -2.32,2.319 0,1.281 1.039,2.319 2.32,2.319 C -1.038,2.319 0,1.281 0,0" /></g><g
           transform="translate(181.1019,238.7324)"
           id="g5564"><path
             id="path5566"
             style="fill:#1267ad;fill-opacity:1;fill-rule:nonzero;stroke:none"
             d="m 0,0 c 0,-0.782 -0.634,-1.416 -1.416,-1.416 -0.783,0 -1.417,0.634 -1.417,1.416 0,0.782 0.634,1.416 1.417,1.416 C -0.634,1.416 0,0.782 0,0" /></g><g
           transform="translate(196.0235,230.8867)"
           id="g5568"><path
             id="path5570"
             style="fill:#1267ad;fill-opacity:1;fill-rule:nonzero;stroke:none"
             d="m 0,0 c 0,-1.639 -1.329,-2.967 -2.967,-2.967 -1.639,0 -2.968,1.328 -2.968,2.967 0,1.639 1.329,2.967 2.968,2.967 C -1.329,2.967 0,1.639 0,0" /></g><g
           transform="translate(212.7209,218.2732)"
           id="g5572"><path
             id="path5574"
             style="fill:#1267ad;fill-opacity:1;fill-rule:nonzero;stroke:none"
             d="m 0,0 c 0,-1.525 -1.236,-2.762 -2.762,-2.762 -1.525,0 -2.761,1.237 -2.761,2.762 0,1.525 1.236,2.762 2.761,2.762 C -1.236,2.762 0,1.525 0,0" /></g><g
           transform="translate(217.8825,213.1785)"
           id="g5576"><path
             id="path5578"
             style="fill:#1267ad;fill-opacity:1;fill-rule:nonzero;stroke:none"
             d="m 0,0 c 0,-1.212 -0.982,-2.194 -2.194,-2.194 -1.212,0 -2.194,0.982 -2.194,2.194 0,1.212 0.982,2.194 2.194,2.194 C -0.982,2.194 0,1.212 0,0" /></g><g
           transform="translate(229.5233,200.2993)"
           id="g5580"><path
             id="path5582"
             style="fill:#1267ad;fill-opacity:1;fill-rule:nonzero;stroke:none"
             d="m 0,0 c 0,-1.7 -1.378,-3.079 -3.079,-3.079 -1.7,0 -3.079,1.379 -3.079,3.079 0,1.7 1.379,3.079 3.079,3.079 C -1.378,3.079 0,1.7 0,0" /></g><g
           transform="translate(232.4461,194.7957)"
           id="g5584"><path
             id="path5586"
             style="fill:#1267ad;fill-opacity:1;fill-rule:nonzero;stroke:none"
             d="m 0,0 c 0,-0.927 -0.752,-1.679 -1.679,-1.679 -0.927,0 -1.679,0.752 -1.679,1.679 0,0.927 0.752,1.679 1.679,1.679 C -0.752,1.679 0,0.927 0,0" /></g><g
           transform="translate(236.9807,186.8964)"
           id="g5588"><path
             id="path5590"
             style="fill:#1267ad;fill-opacity:1;fill-rule:nonzero;stroke:none"
             d="m 0,0 c 0,-1.113 -0.902,-2.015 -2.015,-2.015 -1.113,0 -2.015,0.902 -2.015,2.015 0,1.113 0.902,2.015 2.015,2.015 C -0.902,2.015 0,1.113 0,0" /></g><g
           transform="translate(241.0844,181.94)"
           id="g5592"><path
             id="path5594"
             style="fill:#1267ad;fill-opacity:1;fill-rule:nonzero;stroke:none"
             d="m 0,0 c 0,-1.639 -1.329,-2.968 -2.968,-2.968 -1.638,0 -2.967,1.329 -2.967,2.968 0,1.639 1.329,2.968 2.967,2.968 C -1.329,2.968 0,1.639 0,0" /></g><g
           transform="translate(244.005,171.5223)"
           id="g5596"><path
             id="path5598"
             style="fill:#1267ad;fill-opacity:1;fill-rule:nonzero;stroke:none"
             d="m 0,0 c 0,-1.142 -0.926,-2.068 -2.068,-2.068 -1.142,0 -2.067,0.926 -2.067,2.068 0,1.142 0.925,2.068 2.067,2.068 C -0.926,2.068 0,1.142 0,0" /></g><g
           transform="translate(250.8369,149.7089)"
           id="g5600"><path
             id="path5602"
             style="fill:#1267ad;fill-opacity:1;fill-rule:nonzero;stroke:none"
             d="m 0,0 c 0,-1.417 -1.149,-2.567 -2.567,-2.567 -1.417,0 -2.566,1.15 -2.566,2.567 0,1.417 1.149,2.567 2.566,2.567 C -1.149,2.567 0,1.417 0,0" /></g><g
           transform="translate(253.3979,126.8079)"
           id="g5604"><path
             id="path5606"
             style="fill:#1267ad;fill-opacity:1;fill-rule:nonzero;stroke:none"
             d="m 0,0 c 0,-1.425 -1.156,-2.581 -2.581,-2.581 -1.426,0 -2.581,1.156 -2.581,2.581 0,1.425 1.155,2.581 2.581,2.581 C -1.156,2.581 0,1.425 0,0" /></g><g
           transform="translate(243.4266,126.4614)"
           id="g5608"><path
             id="path5610"
             style="fill:#1689d6;fill-opacity:1;fill-rule:nonzero;stroke:none"
             d="m 0,0 c 0,-1.052 -0.853,-1.905 -1.905,-1.905 -1.053,0 -1.906,0.853 -1.906,1.905 0,1.052 0.853,1.905 1.906,1.905 C -0.853,1.905 0,1.052 0,0" /></g><g
           transform="translate(241.2102,106.5996)"
           id="g5612"><path
             id="path5614"
             style="fill:#1689d6;fill-opacity:1;fill-rule:nonzero;stroke:none"
             d="m 0,0 c 0,-0.903 -0.732,-1.635 -1.635,-1.635 -0.902,0 -1.634,0.732 -1.634,1.635 0,0.903 0.732,1.635 1.634,1.635 C -0.732,1.635 0,0.903 0,0" /></g><g
           transform="translate(240.8203,101.0704)"
           id="g5616"><path
             id="path5618"
             style="fill:#1689d6;fill-opacity:1;fill-rule:nonzero;stroke:none"
             d="m 0,0 c 0,-1.432 -1.161,-2.593 -2.593,-2.593 -1.432,0 -2.592,1.161 -2.592,2.593 0,1.432 1.16,2.593 2.592,2.593 C -1.161,2.593 0,1.432 0,0" /></g><g
           transform="translate(238.5554,95.4291)"
           id="g5620"><path
             id="path5622"
             style="fill:#1689d6;fill-opacity:1;fill-rule:nonzero;stroke:none"
             d="m 0,0 c 0,-1.221 -0.989,-2.21 -2.21,-2.21 -1.22,0 -2.21,0.989 -2.21,2.21 0,1.221 0.99,2.21 2.21,2.21 C -0.989,2.21 0,1.221 0,0" /></g><g
           transform="translate(234.0527,82.9138)"
           id="g5624"><path
             id="path5626"
             style="fill:#1689d6;fill-opacity:1;fill-rule:nonzero;stroke:none"
             d="m 0,0 c 0,-1.278 -1.036,-2.315 -2.315,-2.315 -1.278,0 -2.314,1.037 -2.314,2.315 0,1.278 1.036,2.315 2.314,2.315 C -1.036,2.315 0,1.278 0,0" /></g><g
           transform="translate(228.8206,73.2643)"
           id="g5628"><path
             id="path5630"
             style="fill:#1689d6;fill-opacity:1;fill-rule:nonzero;stroke:none"
             d="m 0,0 c 0,-1.056 -0.856,-1.911 -1.911,-1.911 -1.056,0 -1.912,0.855 -1.912,1.911 0,1.056 0.856,1.911 1.912,1.911 C -0.856,1.911 0,1.056 0,0" /></g><g
           transform="translate(226.1826,67.7929)"
           id="g5632"><path
             id="path5634"
             style="fill:#1689d6;fill-opacity:1;fill-rule:nonzero;stroke:none"
             d="m 0,0 c 0,-1.587 -1.286,-2.873 -2.873,-2.873 -1.586,0 -2.873,1.286 -2.873,2.873 0,1.587 1.287,2.873 2.873,2.873 C -1.286,2.873 0,1.587 0,0" /></g><g
           transform="translate(209.7563,48.8309)"
           id="g5636"><path
             id="path5638"
             style="fill:#1689d6;fill-opacity:1;fill-rule:nonzero;stroke:none"
             d="m 0,0 c 0,-0.925 -0.749,-1.674 -1.674,-1.674 -0.924,0 -1.674,0.749 -1.674,1.674 0,0.925 0.75,1.674 1.674,1.674 C -0.749,1.674 0,0.925 0,0" /></g><g
           transform="translate(205.8786,44.7315)"
           id="g5640"><path
             id="path5642"
             style="fill:#1689d6;fill-opacity:1;fill-rule:nonzero;stroke:none"
             d="m 0,0 c 0,-1.047 -0.849,-1.896 -1.896,-1.896 -1.047,0 -1.895,0.849 -1.895,1.896 0,1.047 0.848,1.896 1.895,1.896 C -0.849,1.896 0,1.047 0,0" /></g><g
           transform="translate(202.4164,41.4729)"
           id="g5644"><path
             id="path5646"
             style="fill:#1689d6;fill-opacity:1;fill-rule:nonzero;stroke:none"
             d="m 0,0 c 0,-0.902 -0.731,-1.633 -1.633,-1.633 -0.901,0 -1.632,0.731 -1.632,1.633 0,0.902 0.731,1.633 1.632,1.633 C -0.731,1.633 0,0.902 0,0" /></g><g
           transform="translate(198.7276,38.1154)"
           id="g5648"><path
             id="path5650"
             style="fill:#1689d6;fill-opacity:1;fill-rule:nonzero;stroke:none"
             d="m 0,0 c 0,-1.325 -1.074,-2.399 -2.399,-2.399 -1.325,0 -2.399,1.074 -2.399,2.399 0,1.325 1.074,2.399 2.399,2.399 C -1.074,2.399 0,1.325 0,0" /></g><g
           transform="translate(180.6058,27.1738)"
           id="g5652"><path
             id="path5654"
             style="fill:#1689d6;fill-opacity:1;fill-rule:nonzero;stroke:none"
             d="m 0,0 c 0,-0.821 -0.666,-1.487 -1.487,-1.487 -0.821,0 -1.487,0.666 -1.487,1.487 0,0.821 0.666,1.487 1.487,1.487 C -0.666,1.487 0,0.821 0,0" /></g><g
           transform="translate(165.3569,21.3787)"
           id="g5656"><path
             id="path5658"
             style="fill:#1689d6;fill-opacity:1;fill-rule:nonzero;stroke:none"
             d="m 0,0 c 0,-0.9 -0.729,-1.629 -1.629,-1.629 -0.899,0 -1.629,0.729 -1.629,1.629 0,0.9 0.73,1.629 1.629,1.629 C -0.729,1.629 0,0.9 0,0" /></g><g
           transform="translate(141.8116,16.4014)"
           id="g5660"><path
             id="path5662"
             style="fill:#1689d6;fill-opacity:1;fill-rule:nonzero;stroke:none"
             d="m 0,0 c 0,-0.607 -0.492,-1.1 -1.1,-1.1 -0.607,0 -1.099,0.493 -1.099,1.1 0,0.607 0.492,1.1 1.099,1.1 C -0.492,1.1 0,0.607 0,0" /></g><g
           transform="translate(126.1599,15.4917)"
           id="g5664"><path
             id="path5666"
             style="fill:#1689d6;fill-opacity:1;fill-rule:nonzero;stroke:none"
             d="m 0,0 c 0,-1.59 -1.289,-2.878 -2.878,-2.878 -1.59,0 -2.878,1.288 -2.878,2.878 0,1.59 1.288,2.878 2.878,2.878 C -1.289,2.878 0,1.59 0,0" /></g><g
           transform="translate(108.2293,17.4109)"
           id="g5668"><path
             id="path5670"
             style="fill:#1689d6;fill-opacity:1;fill-rule:nonzero;stroke:none"
             d="m 0,0 c 0,-0.889 -0.72,-1.609 -1.609,-1.609 -0.889,0 -1.609,0.72 -1.609,1.609 0,0.889 0.72,1.609 1.609,1.609 C -0.72,1.609 0,0.889 0,0" /></g><g
           transform="translate(88.3822,22.5938)"
           id="g5672"><path
             id="path5674"
             style="fill:#1689d6;fill-opacity:1;fill-rule:nonzero;stroke:none"
             d="m 0,0 c 0,-0.734 -0.595,-1.329 -1.329,-1.329 -0.735,0 -1.33,0.595 -1.33,1.329 0,0.734 0.595,1.329 1.33,1.329 C -0.595,1.329 0,0.734 0,0" /></g><g
           transform="translate(84.8506,25.1028)"
           id="g5676"><path
             id="path5678"
             style="fill:#1689d6;fill-opacity:1;fill-rule:nonzero;stroke:none"
             d="m 0,0 c 0,-1.603 -1.299,-2.902 -2.902,-2.902 -1.602,0 -2.902,1.299 -2.902,2.902 0,1.603 1.3,2.902 2.902,2.902 C -1.299,2.902 0,1.603 0,0" /></g><g
           transform="translate(71.8402,31.6019)"
           id="g5680"><path
             id="path5682"
             style="fill:#1689d6;fill-opacity:1;fill-rule:nonzero;stroke:none"
             d="m 0,0 c 0,-1.01 -0.818,-1.828 -1.828,-1.828 -1.01,0 -1.828,0.818 -1.828,1.828 0,1.01 0.818,1.828 1.828,1.828 C -0.818,1.828 0,1.01 0,0" /></g><g
           transform="translate(59.8512,39.6618)"
           id="g5684"><path
             id="path5686"
             style="fill:#1689d6;fill-opacity:1;fill-rule:nonzero;stroke:none"
             d="m 0,0 c 0,-1.39 -1.127,-2.516 -2.516,-2.516 -1.39,0 -2.517,1.126 -2.517,2.516 0,1.39 1.127,2.516 2.517,2.516 C -1.127,2.516 0,1.39 0,0" /></g><g
           transform="translate(52.4848,47.338)"
           id="g5688"><path
             id="path5690"
             style="fill:#1689d6;fill-opacity:1;fill-rule:nonzero;stroke:none"
             d="m 0,0 c 0,-1.645 -1.333,-2.978 -2.978,-2.978 -1.645,0 -2.978,1.333 -2.978,2.978 0,1.645 1.333,2.978 2.978,2.978 C -1.333,2.978 0,1.645 0,0" /></g><g
           transform="translate(37.5394,64.8211)"
           id="g5692"><path
             id="path5694"
             style="fill:#1689d6;fill-opacity:1;fill-rule:nonzero;stroke:none"
             d="m 0,0 c 0,-1.582 -1.282,-2.864 -2.864,-2.864 -1.582,0 -2.864,1.282 -2.864,2.864 0,1.582 1.282,2.864 2.864,2.864 C -1.282,2.864 0,1.582 0,0" /></g><g
           transform="translate(31.1246,74.5394)"
           id="g5696"><path
             id="path5698"
             style="fill:#1689d6;fill-opacity:1;fill-rule:nonzero;stroke:none"
             d="m 0,0 c 0,-1.451 -1.176,-2.628 -2.628,-2.628 -1.451,0 -2.627,1.177 -2.627,2.628 0,1.451 1.176,2.628 2.627,2.628 C -1.176,2.628 0,1.451 0,0" /></g><g
           transform="translate(26.3028,79.805)"
           id="g5700"><path
             id="path5702"
             style="fill:#1689d6;fill-opacity:1;fill-rule:nonzero;stroke:none"
             d="m 0,0 c 0,-0.768 -0.622,-1.39 -1.39,-1.39 -0.767,0 -1.389,0.622 -1.389,1.39 0,0.768 0.622,1.39 1.389,1.39 C -0.622,1.39 0,0.768 0,0" /></g><g
           transform="translate(22.8098,95.1213)"
           id="g5704"><path
             id="path5706"
             style="fill:#1689d6;fill-opacity:1;fill-rule:nonzero;stroke:none"
             d="m 0,0 c 0,-1.555 -1.26,-2.815 -2.815,-2.815 -1.555,0 -2.815,1.26 -2.815,2.815 0,1.555 1.26,2.815 2.815,2.815 C -1.26,2.815 0,1.555 0,0" /></g><g
           transform="translate(17.1447,116.4132)"
           id="g5708"><path
             id="path5710"
             style="fill:#1689d6;fill-opacity:1;fill-rule:nonzero;stroke:none"
             d="m 0,0 c 0,-0.78 -0.632,-1.413 -1.413,-1.413 -0.78,0 -1.412,0.633 -1.412,1.413 0,0.78 0.632,1.413 1.412,1.413 C -0.632,1.413 0,0.78 0,0" /></g><g
           transform="translate(17.2118,135.0378)"
           id="g5712"><path
             id="path5714"
             style="fill:#1689d6;fill-opacity:1;fill-rule:nonzero;stroke:none"
             d="m 0,0 c 0,-1.192 -0.966,-2.158 -2.158,-2.158 -1.192,0 -2.158,0.966 -2.158,2.158 0,1.192 0.966,2.158 2.158,2.158 C -0.966,2.158 0,1.192 0,0" /></g><g
           transform="translate(18.09,150.3538)"
           id="g5716"><path
             id="path5718"
             style="fill:#1689d6;fill-opacity:1;fill-rule:nonzero;stroke:none"
             d="m 0,0 c 0,-0.703 -0.57,-1.272 -1.272,-1.272 -0.703,0 -1.272,0.569 -1.272,1.272 0,0.703 0.569,1.272 1.272,1.272 C -0.57,1.272 0,0.703 0,0" /></g><g
           transform="translate(24.0321,167.209)"
           id="g5720"><path
             id="path5722"
             style="fill:#1689d6;fill-opacity:1;fill-rule:nonzero;stroke:none"
             d="m 0,0 c 0,-1.245 -1.009,-2.254 -2.254,-2.254 -1.245,0 -2.254,1.009 -2.254,2.254 0,1.245 1.009,2.254 2.254,2.254 C -1.009,2.254 0,1.245 0,0" /></g><g
           transform="translate(32.9806,186.9582)"
           id="g5724"><path
             id="path5726"
             style="fill:#1689d6;fill-opacity:1;fill-rule:nonzero;stroke:none"
             d="m 0,0 c 0,-1.017 -0.824,-1.841 -1.841,-1.841 -1.017,0 -1.841,0.824 -1.841,1.841 0,1.017 0.824,1.841 1.841,1.841 C -0.824,1.841 0,1.017 0,0" /></g><g
           transform="translate(45.771,204.9832)"
           id="g5728"><path
             id="path5730"
             style="fill:#1689d6;fill-opacity:1;fill-rule:nonzero;stroke:none"
             d="m 0,0 c 0,-0.709 -0.575,-1.284 -1.284,-1.284 -0.709,0 -1.284,0.575 -1.284,1.284 0,0.709 0.575,1.284 1.284,1.284 C -0.575,1.284 0,0.709 0,0" /></g><g
           transform="translate(56.3618,215.174)"
           id="g5732"><path
             id="path5734"
             style="fill:#1689d6;fill-opacity:1;fill-rule:nonzero;stroke:none"
             d="m 0,0 c 0,-0.93 -0.754,-1.684 -1.684,-1.684 -0.93,0 -1.684,0.754 -1.684,1.684 0,0.93 0.754,1.684 1.684,1.684 C -0.754,1.684 0,0.93 0,0" /></g><g
           transform="translate(65.6604,221.7025)"
           id="g5736"><path
             id="path5738"
             style="fill:#1689d6;fill-opacity:1;fill-rule:nonzero;stroke:none"
             d="m 0,0 c 0,-1.103 -0.894,-1.997 -1.997,-1.997 -1.103,0 -1.997,0.894 -1.997,1.997 0,1.103 0.894,1.997 1.997,1.997 C -0.894,1.997 0,1.103 0,0" /></g><g
           transform="translate(72.9983,226.7622)"
           id="g5740"><path
             id="path5742"
             style="fill:#1689d6;fill-opacity:1;fill-rule:nonzero;stroke:none"
             d="m 0,0 c 0,-0.76 -0.616,-1.377 -1.377,-1.377 -0.76,0 -1.376,0.617 -1.376,1.377 0,0.76 0.616,1.377 1.376,1.377 C -0.616,1.377 0,0.76 0,0" /></g><g
           transform="translate(81.8886,231.453)"
           id="g5744"><path
             id="path5746"
             style="fill:#1689d6;fill-opacity:1;fill-rule:nonzero;stroke:none"
             d="m 0,0 c 0,-1.18 -0.957,-2.136 -2.136,-2.136 -1.18,0 -2.137,0.956 -2.137,2.136 0,1.18 0.957,2.136 2.137,2.136 C -0.957,2.136 0,1.18 0,0" /></g><g
           transform="translate(97.7778,237.4207)"
           id="g5748"><path
             id="path5750"
             style="fill:#1689d6;fill-opacity:1;fill-rule:nonzero;stroke:none"
             d="m 0,0 c 0,-0.734 -0.595,-1.329 -1.329,-1.329 -0.734,0 -1.328,0.595 -1.328,1.329 0,0.734 0.594,1.329 1.328,1.329 C -0.595,1.329 0,0.734 0,0" /></g><g
           transform="translate(106.2735,239.546)"
           id="g5752"><path
             id="path5754"
             style="fill:#1689d6;fill-opacity:1;fill-rule:nonzero;stroke:none"
             d="m 0,0 c 0,-1.649 -1.337,-2.986 -2.986,-2.986 -1.65,0 -2.987,1.337 -2.987,2.986 0,1.649 1.337,2.986 2.987,2.986 C -1.337,2.986 0,1.649 0,0" /></g><g
           transform="translate(112.5579,240.331)"
           id="g5756"><path
             id="path5758"
             style="fill:#1689d6;fill-opacity:1;fill-rule:nonzero;stroke:none"
             d="m 0,0 c 0,-1.356 -1.099,-2.456 -2.456,-2.456 -1.356,0 -2.455,1.1 -2.455,2.456 0,1.356 1.099,2.456 2.455,2.456 C -1.099,2.456 0,1.356 0,0" /></g><g
           transform="translate(121.6943,241.4423)"
           id="g5760"><path
             id="path5762"
             style="fill:#1689d6;fill-opacity:1;fill-rule:nonzero;stroke:none"
             d="m 0,0 c 0,-1.074 -0.87,-1.944 -1.944,-1.944 -1.074,0 -1.944,0.87 -1.944,1.944 0,1.074 0.87,1.944 1.944,1.944 C -0.87,1.944 0,1.074 0,0" /></g><g
           transform="translate(137.6057,241.4576)"
           id="g5764"><path
             id="path5766"
             style="fill:#1689d6;fill-opacity:1;fill-rule:nonzero;stroke:none"
             d="m 0,0 c 0,-0.769 -0.624,-1.393 -1.393,-1.393 -0.769,0 -1.392,0.624 -1.392,1.393 0,0.769 0.623,1.393 1.392,1.393 C -0.624,1.393 0,0.769 0,0" /></g><g
           transform="translate(162.1828,237.5847)"
           id="g5768"><path
             id="path5770"
             style="fill:#1689d6;fill-opacity:1;fill-rule:nonzero;stroke:none"
             d="m 0,0 c 0,-1.654 -1.341,-2.995 -2.995,-2.995 -1.653,0 -2.994,1.341 -2.994,2.995 0,1.654 1.341,2.995 2.994,2.995 C -1.341,2.995 0,1.654 0,0" /></g><g
           transform="translate(161.6072,237.1301)"
           id="g5772"><path
             id="path5774"
             style="fill:#1689d6;fill-opacity:1;fill-rule:nonzero;stroke:none"
             d="m 0,0 c 0,-0.633 -0.514,-1.147 -1.147,-1.147 -0.633,0 -1.147,0.514 -1.147,1.147 0,0.633 0.514,1.147 1.147,1.147 C -0.514,1.147 0,0.633 0,0" /></g><g
           transform="translate(171.025,234.1564)"
           id="g5776"><path
             id="path5778"
             style="fill:#1689d6;fill-opacity:1;fill-rule:nonzero;stroke:none"
             d="m 0,0 c 0,-1.24 -1.005,-2.245 -2.245,-2.245 -1.24,0 -2.245,1.005 -2.245,2.245 0,1.24 1.005,2.245 2.245,2.245 C -1.005,2.245 0,1.24 0,0" /></g><g
           transform="translate(191.7692,223.0002)"
           id="g5780"><path
             id="path5782"
             style="fill:#1689d6;fill-opacity:1;fill-rule:nonzero;stroke:none"
             d="m 0,0 c 0,-0.761 -0.617,-1.378 -1.378,-1.378 -0.761,0 -1.377,0.617 -1.377,1.378 0,0.761 0.616,1.378 1.377,1.378 C -0.617,1.378 0,0.761 0,0" /></g><g
           transform="translate(205.7341,213.5423)"
           id="g5784"><path
             id="path5786"
             style="fill:#1689d6;fill-opacity:1;fill-rule:nonzero;stroke:none"
             d="m 0,0 c 0,-1.482 -1.202,-2.684 -2.684,-2.684 -1.482,0 -2.684,1.202 -2.684,2.684 0,1.482 1.202,2.684 2.684,2.684 C -1.202,2.684 0,1.482 0,0" /></g><g
           transform="translate(210.9238,208.873)"
           id="g5788"><path
             id="path5790"
             style="fill:#1689d6;fill-opacity:1;fill-rule:nonzero;stroke:none"
             d="m 0,0 c 0,-1.463 -1.186,-2.649 -2.649,-2.649 -1.464,0 -2.65,1.186 -2.65,2.649 0,1.463 1.186,2.649 2.65,2.649 C -1.186,2.649 0,1.463 0,0" /></g><g
           transform="translate(220.1859,196.1184)"
           id="g5792"><path
             id="path5794"
             style="fill:#1689d6;fill-opacity:1;fill-rule:nonzero;stroke:none"
             d="m 0,0 c 0,-0.582 -0.472,-1.053 -1.053,-1.053 -0.582,0 -1.054,0.471 -1.054,1.053 0,0.582 0.472,1.053 1.054,1.053 C -0.472,1.053 0,0.582 0,0" /></g><g
           transform="translate(232.806,176.0455)"
           id="g5796"><path
             id="path5798"
             style="fill:#1689d6;fill-opacity:1;fill-rule:nonzero;stroke:none"
             d="m 0,0 c 0,-0.909 -0.737,-1.646 -1.646,-1.646 -0.91,0 -1.647,0.737 -1.647,1.646 0,0.909 0.737,1.646 1.647,1.646 C -0.737,1.646 0,0.909 0,0" /></g><g
           transform="translate(239.9671,158.381)"
           id="g5800"><path
             id="path5802"
             style="fill:#1689d6;fill-opacity:1;fill-rule:nonzero;stroke:none"
             d="m 0,0 c 0,-1.377 -1.117,-2.494 -2.494,-2.494 -1.377,0 -2.494,1.117 -2.494,2.494 0,1.377 1.117,2.494 2.494,2.494 C -1.117,2.494 0,1.377 0,0" /></g><g
           transform="translate(242.5958,140.8962)"
           id="g5804"><path
             id="path5806"
             style="fill:#1689d6;fill-opacity:1;fill-rule:nonzero;stroke:none"
             d="m 0,0 c 0,-1.231 -0.998,-2.228 -2.228,-2.228 -1.231,0 -2.229,0.997 -2.229,2.228 0,1.231 0.998,2.228 2.229,2.228 C -0.998,2.228 0,1.231 0,0" /></g><g
           transform="translate(243.2122,131.4858)"
           id="g5808"><path
             id="path5810"
             style="fill:#1689d6;fill-opacity:1;fill-rule:nonzero;stroke:none"
             d="m 0,0 c 0,-0.837 -0.679,-1.516 -1.516,-1.516 -0.837,0 -1.516,0.679 -1.516,1.516 0,0.837 0.679,1.516 1.516,1.516 C -0.679,1.516 0,0.837 0,0" /></g><g
           transform="translate(234.5336,119.7186)"
           id="g5812"><path
             id="path5814"
             style="fill:#1267ad;fill-opacity:1;fill-rule:nonzero;stroke:none"
             d="m 0,0 c 0,-1.529 -1.24,-2.769 -2.769,-2.769 -1.529,0 -2.769,1.24 -2.769,2.769 0,1.529 1.24,2.769 2.769,2.769 C -1.24,2.769 0,1.529 0,0" /></g><g
           transform="translate(231.2915,106.2579)"
           id="g5816"><path
             id="path5818"
             style="fill:#1267ad;fill-opacity:1;fill-rule:nonzero;stroke:none"
             d="m 0,0 c 0,-0.595 -0.482,-1.077 -1.077,-1.077 -0.596,0 -1.078,0.482 -1.078,1.077 0,0.595 0.482,1.077 1.078,1.077 C -0.482,1.077 0,0.595 0,0" /></g><g
           transform="translate(228.9523,96.0719)"
           id="g5820"><path
             id="path5822"
             style="fill:#1267ad;fill-opacity:1;fill-rule:nonzero;stroke:none"
             d="m 0,0 c 0,-1.03 -0.835,-1.865 -1.865,-1.865 -1.03,0 -1.865,0.835 -1.865,1.865 0,1.03 0.835,1.865 1.865,1.865 C -0.835,1.865 0,1.03 0,0" /></g><g
           transform="translate(219.0957,74.002)"
           id="g5824"><path
             id="path5826"
             style="fill:#1267ad;fill-opacity:1;fill-rule:nonzero;stroke:none"
             d="m 0,0 c 0,-1.188 -0.963,-2.151 -2.151,-2.151 -1.188,0 -2.152,0.963 -2.152,2.151 0,1.188 0.964,2.151 2.152,2.151 C -0.963,2.151 0,1.188 0,0" /></g><g
           transform="translate(207.1041,58.9401)"
           id="g5828"><path
             id="path5830"
             style="fill:#1267ad;fill-opacity:1;fill-rule:nonzero;stroke:none"
             d="m 0,0 c 0,-0.603 -0.489,-1.092 -1.092,-1.092 -0.603,0 -1.092,0.489 -1.092,1.092 0,0.603 0.489,1.092 1.092,1.092 C -0.489,1.092 0,0.603 0,0" /></g><g
           transform="translate(199.0312,50.6698)"
           id="g5832"><path
             id="path5834"
             style="fill:#1267ad;fill-opacity:1;fill-rule:nonzero;stroke:none"
             d="m 0,0 c 0,-0.712 -0.577,-1.29 -1.29,-1.29 -0.712,0 -1.289,0.578 -1.289,1.29 0,0.712 0.577,1.29 1.289,1.29 C -0.577,1.29 0,0.712 0,0" /></g><g
           transform="translate(182.0584,38.2275)"
           id="g5836"><path
             id="path5838"
             style="fill:#1267ad;fill-opacity:1;fill-rule:nonzero;stroke:none"
             d="m 0,0 c 0,-0.812 -0.659,-1.471 -1.471,-1.471 -0.812,0 -1.471,0.659 -1.471,1.471 0,0.812 0.659,1.471 1.471,1.471 C -0.659,1.471 0,0.812 0,0" /></g><g
           transform="translate(172.5291,33.1113)"
           id="g5840"><path
             id="path5842"
             style="fill:#1267ad;fill-opacity:1;fill-rule:nonzero;stroke:none"
             d="m 0,0 c 0,-0.659 -0.534,-1.193 -1.193,-1.193 -0.659,0 -1.193,0.534 -1.193,1.193 0,0.659 0.534,1.193 1.193,1.193 C -0.534,1.193 0,0.659 0,0" /></g><g
           transform="translate(155.9909,26.5425)"
           id="g5844"><path
             id="path5846"
             style="fill:#1267ad;fill-opacity:1;fill-rule:nonzero;stroke:none"
             d="m 0,0 c 0,-1.675 -1.358,-3.033 -3.033,-3.033 -1.675,0 -3.033,1.358 -3.033,3.033 0,1.675 1.358,3.033 3.033,3.033 C -1.358,3.033 0,1.675 0,0" /></g><g
           transform="translate(138.0704,24.4834)"
           id="g5848"><path
             id="path5850"
             style="fill:#1267ad;fill-opacity:1;fill-rule:nonzero;stroke:none"
             d="m 0,0 c 0,-0.598 -0.485,-1.083 -1.083,-1.083 -0.599,0 -1.084,0.485 -1.084,1.083 0,0.598 0.485,1.083 1.084,1.083 C -0.485,1.083 0,0.598 0,0" /></g><g
           transform="translate(126.8299,23.9001)"
           id="g5852"><path
             id="path5854"
             style="fill:#1267ad;fill-opacity:1;fill-rule:nonzero;stroke:none"
             d="m 0,0 c 0,-1.467 -1.19,-2.657 -2.657,-2.657 -1.467,0 -2.657,1.19 -2.657,2.657 0,1.467 1.19,2.657 2.657,2.657 C -1.19,2.657 0,1.467 0,0" /></g><g
           transform="translate(111.9289,25.5248)"
           id="g5856"><path
             id="path5858"
             style="fill:#1267ad;fill-opacity:1;fill-rule:nonzero;stroke:none"
             d="m 0,0 c 0,-1.028 -0.833,-1.861 -1.861,-1.861 -1.027,0 -1.86,0.833 -1.86,1.861 0,1.028 0.833,1.861 1.86,1.861 C -0.833,1.861 0,1.028 0,0" /></g><g
           transform="translate(106.0157,26.5519)"
           id="g5860"><path
             id="path5862"
             style="fill:#1267ad;fill-opacity:1;fill-rule:nonzero;stroke:none"
             d="m 0,0 c 0,-1.604 -1.3,-2.904 -2.904,-2.904 -1.603,0 -2.903,1.3 -2.903,2.904 0,1.604 1.3,2.904 2.903,2.904 C -1.3,2.904 0,1.604 0,0" /></g><g
           transform="translate(88.6995,32.6274)"
           id="g5864"><path
             id="path5866"
             style="fill:#1267ad;fill-opacity:1;fill-rule:nonzero;stroke:none"
             d="m 0,0 c 0,-1.428 -1.158,-2.586 -2.586,-2.586 -1.428,0 -2.586,1.158 -2.586,2.586 0,1.428 1.158,2.586 2.586,2.586 C -1.158,2.586 0,1.428 0,0" /></g><g
           transform="translate(73.9211,41.1033)"
           id="g5868"><path
             id="path5870"
             style="fill:#1267ad;fill-opacity:1;fill-rule:nonzero;stroke:none"
             d="m 0,0 c 0,-1.622 -1.315,-2.936 -2.936,-2.936 -1.622,0 -2.936,1.314 -2.936,2.936 0,1.622 1.314,2.936 2.936,2.936 C -1.315,2.936 0,1.622 0,0" /></g><g
           transform="translate(56.516,53.9276)"
           id="g5872"><path
             id="path5874"
             style="fill:#1267ad;fill-opacity:1;fill-rule:nonzero;stroke:none"
             d="m 0,0 c 0,-0.784 -0.636,-1.419 -1.419,-1.419 -0.784,0 -1.42,0.635 -1.42,1.419 0,0.784 0.636,1.419 1.42,1.419 C -0.636,1.419 0,0.784 0,0" /></g><g
           transform="translate(51.4884,59.8535)"
           id="g5876"><path
             id="path5878"
             style="fill:#1267ad;fill-opacity:1;fill-rule:nonzero;stroke:none"
             d="m 0,0 c 0,-1.28 -1.038,-2.318 -2.318,-2.318 -1.28,0 -2.317,1.038 -2.317,2.318 0,1.28 1.037,2.318 2.317,2.318 C -1.038,2.318 0,1.28 0,0" /></g><g
           transform="translate(38.5841,77.3162)"
           id="g5880"><path
             id="path5882"
             style="fill:#1267ad;fill-opacity:1;fill-rule:nonzero;stroke:none"
             d="m 0,0 c 0,-0.85 -0.689,-1.54 -1.54,-1.54 -0.85,0 -1.539,0.69 -1.539,1.54 0,0.85 0.689,1.54 1.539,1.54 C -0.689,1.54 0,0.85 0,0" /></g><g
           transform="translate(31.0172,99.0851)"
           id="g5884"><path
             id="path5886"
             style="fill:#1267ad;fill-opacity:1;fill-rule:nonzero;stroke:none"
             d="m 0,0 c 0,-1.704 -1.381,-3.085 -3.085,-3.085 -1.704,0 -3.086,1.381 -3.086,3.085 0,1.704 1.382,3.085 3.086,3.085 C -1.381,3.085 0,1.704 0,0" /></g><g
           transform="translate(27.2842,104.9982)"
           id="g5888"><path
             id="path5890"
             style="fill:#1267ad;fill-opacity:1;fill-rule:nonzero;stroke:none"
             d="m 0,0 c 0,-0.694 -0.563,-1.257 -1.257,-1.257 -0.694,0 -1.257,0.563 -1.257,1.257 0,0.694 0.563,1.257 1.257,1.257 C -0.563,1.257 0,0.694 0,0" /></g><g
           transform="translate(26.9668,108.0011)"
           id="g5892"><path
             id="path5894"
             style="fill:#1267ad;fill-opacity:1;fill-rule:nonzero;stroke:none"
             d="m 0,0 c 0,-0.71 -0.576,-1.286 -1.286,-1.286 -0.71,0 -1.285,0.576 -1.285,1.286 0,0.71 0.575,1.286 1.285,1.286 C -0.576,1.286 0,0.71 0,0" /></g><g
           transform="translate(25.6552,130.6626)"
           id="g5896"><path
             id="path5898"
             style="fill:#1267ad;fill-opacity:1;fill-rule:nonzero;stroke:none"
             d="m 0,0 c 0,-1.106 -0.897,-2.003 -2.003,-2.003 -1.107,0 -2.003,0.897 -2.003,2.003 0,1.106 0.896,2.003 2.003,2.003 C -0.897,2.003 0,1.106 0,0" /></g><g
           transform="translate(26.3652,137.0318)"
           id="g5900"><path
             id="path5902"
             style="fill:#1267ad;fill-opacity:1;fill-rule:nonzero;stroke:none"
             d="m 0,0 c 0,-1.093 -0.886,-1.98 -1.98,-1.98 -1.093,0 -1.979,0.887 -1.979,1.98 0,1.093 0.886,1.98 1.979,1.98 C -0.886,1.98 0,1.093 0,0" /></g><g
           transform="translate(30.0403,155.5838)"
           id="g5904"><path
             id="path5906"
             style="fill:#1267ad;fill-opacity:1;fill-rule:nonzero;stroke:none"
             d="m 0,0 c 0,-1.483 -1.202,-2.685 -2.685,-2.685 -1.482,0 -2.684,1.202 -2.684,2.685 0,1.483 1.202,2.685 2.684,2.685 C -1.202,2.685 0,1.483 0,0" /></g><g
           transform="translate(34.1103,169.2184)"
           id="g5908"><path
             id="path5910"
             style="fill:#1267ad;fill-opacity:1;fill-rule:nonzero;stroke:none"
             d="m 0,0 c 0,-1.039 -0.842,-1.881 -1.881,-1.881 -1.039,0 -1.882,0.842 -1.882,1.881 0,1.039 0.843,1.881 1.882,1.881 C -0.842,1.881 0,1.039 0,0" /></g><g
           transform="translate(35.6986,174.5407)"
           id="g5912"><path
             id="path5914"
             style="fill:#1267ad;fill-opacity:1;fill-rule:nonzero;stroke:none"
             d="m 0,0 c 0,-0.81 -0.657,-1.467 -1.467,-1.467 -0.81,0 -1.466,0.657 -1.466,1.467 0,0.81 0.656,1.467 1.466,1.467 C -0.657,1.467 0,0.81 0,0" /></g><g
           transform="translate(46.0368,188.4753)"
           id="g5916"><path
             id="path5918"
             style="fill:#1267ad;fill-opacity:1;fill-rule:nonzero;stroke:none"
             d="m 0,0 c 0,-1.627 -1.319,-2.946 -2.946,-2.946 -1.626,0 -2.945,1.319 -2.945,2.946 0,1.627 1.319,2.946 2.945,2.946 C -1.319,2.946 0,1.627 0,0" /></g><g
           transform="translate(58.3122,202.5203)"
           id="g5920"><path
             id="path5922"
             style="fill:#1267ad;fill-opacity:1;fill-rule:nonzero;stroke:none"
             d="m 0,0 c 0,-1.443 -1.17,-2.612 -2.612,-2.612 -1.443,0 -2.612,1.169 -2.612,2.612 0,1.443 1.169,2.612 2.612,2.612 C -1.17,2.612 0,1.443 0,0" /></g><g
           transform="translate(63.0541,207.7505)"
           id="g5924"><path
             id="path5926"
             style="fill:#1267ad;fill-opacity:1;fill-rule:nonzero;stroke:none"
             d="m 0,0 c 0,-1.414 -1.146,-2.56 -2.56,-2.56 -1.414,0 -2.56,1.146 -2.56,2.56 0,1.414 1.146,2.56 2.56,2.56 C -1.146,2.56 0,1.414 0,0" /></g><g
           transform="translate(72.5443,214.82)"
           id="g5928"><path
             id="path5930"
             style="fill:#1267ad;fill-opacity:1;fill-rule:nonzero;stroke:none"
             d="m 0,0 c 0,-1.172 -0.95,-2.121 -2.121,-2.121 -1.172,0 -2.122,0.949 -2.122,2.121 0,1.172 0.95,2.121 2.122,2.121 C -0.95,2.121 0,1.172 0,0" /></g><g
           transform="translate(92.7342,225.2024)"
           id="g5932"><path
             id="path5934"
             style="fill:#1267ad;fill-opacity:1;fill-rule:nonzero;stroke:none"
             d="m 0,0 c 0,-1.263 -1.024,-2.287 -2.287,-2.287 -1.262,0 -2.286,1.024 -2.286,2.287 0,1.263 1.024,2.287 2.286,2.287 C -1.024,2.287 0,1.263 0,0" /></g><g
           transform="translate(99.5848,227.7135)"
           id="g5936"><path
             id="path5938"
             style="fill:#1267ad;fill-opacity:1;fill-rule:nonzero;stroke:none"
             d="m 0,0 c 0,-1.166 -0.945,-2.111 -2.111,-2.111 -1.167,0 -2.112,0.945 -2.112,2.111 0,1.166 0.945,2.111 2.112,2.111 C -0.945,2.111 0,1.166 0,0" /></g><g
           transform="translate(123.046,232.0351)"
           id="g5940"><path
             id="path5942"
             style="fill:#1267ad;fill-opacity:1;fill-rule:nonzero;stroke:none"
             d="m 0,0 c 0,-1.034 -0.838,-1.873 -1.873,-1.873 -1.034,0 -1.872,0.839 -1.872,1.873 0,1.034 0.838,1.873 1.872,1.873 C -0.838,1.873 0,1.034 0,0" /></g><g
           transform="translate(135.8195,232.2235)"
           id="g5944"><path
             id="path5946"
             style="fill:#1267ad;fill-opacity:1;fill-rule:nonzero;stroke:none"
             d="m 0,0 c 0,-1.399 -1.134,-2.533 -2.533,-2.533 -1.399,0 -2.533,1.134 -2.533,2.533 0,1.399 1.134,2.533 2.533,2.533 C -1.134,2.533 0,1.399 0,0" /></g><g
           transform="translate(149.52,230.6872)"
           id="g5948"><path
             id="path5950"
             style="fill:#1267ad;fill-opacity:1;fill-rule:nonzero;stroke:none"
             d="m 0,0 c 0,-1.599 -1.296,-2.896 -2.896,-2.896 -1.599,0 -2.895,1.297 -2.895,2.896 0,1.599 1.296,2.896 2.895,2.896 C -1.296,2.896 0,1.599 0,0" /></g><g
           transform="translate(157.862,228.5355)"
           id="g5952"><path
             id="path5954"
             style="fill:#1267ad;fill-opacity:1;fill-rule:nonzero;stroke:none"
             d="m 0,0 c 0,-0.85 -0.689,-1.539 -1.539,-1.539 -0.85,0 -1.539,0.689 -1.539,1.539 0,0.85 0.689,1.539 1.539,1.539 C -0.689,1.539 0,0.85 0,0" /></g><g
           transform="translate(167.4673,225.0872)"
           id="g5956"><path
             id="path5958"
             style="fill:#1267ad;fill-opacity:1;fill-rule:nonzero;stroke:none"
             d="m 0,0 c 0,-0.827 -0.67,-1.497 -1.497,-1.497 -0.826,0 -1.497,0.67 -1.497,1.497 0,0.827 0.671,1.497 1.497,1.497 C -0.67,1.497 0,0.827 0,0" /></g><g
           transform="translate(182.4157,218.547)"
           id="g5960"><path
             id="path5962"
             style="fill:#1267ad;fill-opacity:1;fill-rule:nonzero;stroke:none"
             d="m 0,0 c 0,-1.117 -0.906,-2.023 -2.023,-2.023 -1.118,0 -2.024,0.906 -2.024,2.023 0,1.117 0.906,2.023 2.024,2.023 C -0.906,2.023 0,1.117 0,0" /></g><g
           transform="translate(187.4439,214.9525)"
           id="g5964"><path
             id="path5966"
             style="fill:#1267ad;fill-opacity:1;fill-rule:nonzero;stroke:none"
             d="m 0,0 c 0,-1.093 -0.886,-1.979 -1.979,-1.979 -1.094,0 -1.98,0.886 -1.98,1.979 0,1.093 0.886,1.979 1.98,1.979 C -0.886,1.979 0,1.093 0,0" /></g><g
           transform="translate(200.1375,205.5477)"
           id="g5968"><path
             id="path5970"
             style="fill:#1267ad;fill-opacity:1;fill-rule:nonzero;stroke:none"
             d="m 0,0 c 0,-1.288 -1.044,-2.333 -2.333,-2.333 -1.288,0 -2.332,1.045 -2.332,2.333 0,1.288 1.044,2.333 2.332,2.333 C -1.044,2.333 0,1.288 0,0" /></g><g
           transform="translate(210.9381,194.388)"
           id="g5972"><path
             id="path5974"
             style="fill:#1267ad;fill-opacity:1;fill-rule:nonzero;stroke:none"
             d="m 0,0 c 0,-1.09 -0.884,-1.974 -1.974,-1.974 -1.09,0 -1.973,0.884 -1.973,1.974 0,1.09 0.883,1.974 1.973,1.974 C -0.884,1.974 0,1.09 0,0" /></g><g
           transform="translate(218.29,183.5412)"
           id="g5976"><path
             id="path5978"
             style="fill:#1267ad;fill-opacity:1;fill-rule:nonzero;stroke:none"
             d="m 0,0 c 0,-1.186 -0.962,-2.148 -2.148,-2.148 -1.187,0 -2.149,0.962 -2.149,2.148 0,1.186 0.962,2.148 2.149,2.148 C -0.962,2.148 0,1.186 0,0" /></g><g
           transform="translate(221.7867,179.0164)"
           id="g5980"><path
             id="path5982"
             style="fill:#1267ad;fill-opacity:1;fill-rule:nonzero;stroke:none"
             d="m 0,0 c 0,-1.529 -1.239,-2.768 -2.768,-2.768 -1.529,0 -2.768,1.239 -2.768,2.768 0,1.529 1.239,2.768 2.768,2.768 C -1.239,2.768 0,1.529 0,0" /></g><g
           transform="translate(226.792,165.667)"
           id="g5984"><path
             id="path5986"
             style="fill:#1267ad;fill-opacity:1;fill-rule:nonzero;stroke:none"
             d="m 0,0 c 0,-0.914 -0.741,-1.656 -1.656,-1.656 -0.914,0 -1.655,0.742 -1.655,1.656 0,0.914 0.741,1.656 1.655,1.656 C -0.741,1.656 0,0.914 0,0" /></g><g
           transform="translate(228.2834,160.196)"
           id="g5988"><path
             id="path5990"
             style="fill:#1267ad;fill-opacity:1;fill-rule:nonzero;stroke:none"
             d="m 0,0 c 0,-0.658 -0.534,-1.192 -1.192,-1.192 -0.658,0 -1.191,0.534 -1.191,1.192 0,0.658 0.533,1.192 1.191,1.192 C -0.534,1.192 0,0.658 0,0" /></g><g
           transform="translate(231.7956,145.5792)"
           id="g5992"><path
             id="path5994"
             style="fill:#1267ad;fill-opacity:1;fill-rule:nonzero;stroke:none"
             d="m 0,0 c 0,-0.591 -0.479,-1.07 -1.07,-1.07 -0.591,0 -1.069,0.479 -1.069,1.07 0,0.591 0.478,1.07 1.069,1.07 C -0.479,1.07 0,0.591 0,0" /></g><g
           transform="translate(233.9439,128.1404)"
           id="g5996"><path
             id="path5998"
             style="fill:#1267ad;fill-opacity:1;fill-rule:nonzero;stroke:none"
             d="m 0,0 c 0,-0.668 -0.541,-1.209 -1.209,-1.209 -0.668,0 -1.21,0.541 -1.21,1.209 0,0.668 0.542,1.209 1.21,1.209 C -0.541,1.209 0,0.668 0,0" /></g><g
           transform="translate(224.5007,121.4302)"
           id="g6000"><path
             id="path6002"
             style="fill:#1689d6;fill-opacity:1;fill-rule:nonzero;stroke:none"
             d="m 0,0 c 0,-0.89 -0.721,-1.611 -1.611,-1.611 -0.889,0 -1.611,0.721 -1.611,1.611 0,0.89 0.722,1.611 1.611,1.611 C -0.721,1.611 0,0.89 0,0" /></g><g
           transform="translate(222.4828,107.4917)"
           id="g6004"><path
             id="path6006"
             style="fill:#1689d6;fill-opacity:1;fill-rule:nonzero;stroke:none"
             d="m 0,0 c 0,-0.662 -0.537,-1.198 -1.198,-1.198 -0.662,0 -1.199,0.536 -1.199,1.198 0,0.662 0.537,1.198 1.199,1.198 C -0.537,1.198 0,0.662 0,0" /></g><g
           transform="translate(220.3905,96.8276)"
           id="g6008"><path
             id="path6010"
             style="fill:#1689d6;fill-opacity:1;fill-rule:nonzero;stroke:none"
             d="m 0,0 c 0,-1.475 -1.196,-2.671 -2.671,-2.671 -1.476,0 -2.672,1.196 -2.672,2.671 0,1.475 1.196,2.671 2.672,2.671 C -1.196,2.671 0,1.475 0,0" /></g><g
           transform="translate(208.2625,75.0239)"
           id="g6012"><path
             id="path6014"
             style="fill:#1689d6;fill-opacity:1;fill-rule:nonzero;stroke:none"
             d="m 0,0 c 0,-0.821 -0.666,-1.487 -1.487,-1.487 -0.822,0 -1.488,0.666 -1.488,1.487 0,0.821 0.666,1.487 1.488,1.487 C -0.666,1.487 0,0.821 0,0" /></g><g
           transform="translate(204.8539,70.0795)"
           id="g6016"><path
             id="path6018"
             style="fill:#1689d6;fill-opacity:1;fill-rule:nonzero;stroke:none"
             d="m 0,0 c 0,-0.675 -0.547,-1.222 -1.222,-1.222 -0.675,0 -1.222,0.547 -1.222,1.222 0,0.675 0.547,1.222 1.222,1.222 C -0.547,1.222 0,0.675 0,0" /></g><g
           transform="translate(196.2876,59.7721)"
           id="g6020"><path
             id="path6022"
             style="fill:#1689d6;fill-opacity:1;fill-rule:nonzero;stroke:none"
             d="m 0,0 c 0,-1.336 -1.083,-2.419 -2.419,-2.419 -1.336,0 -2.419,1.083 -2.419,2.419 0,1.336 1.083,2.419 2.419,2.419 C -1.083,2.419 0,1.336 0,0" /></g><g
           transform="translate(186.3992,50.8768)"
           id="g6024"><path
             id="path6026"
             style="fill:#1689d6;fill-opacity:1;fill-rule:nonzero;stroke:none"
             d="m 0,0 c 0,-1.704 -1.381,-3.085 -3.085,-3.085 -1.704,0 -3.085,1.381 -3.085,3.085 0,1.704 1.381,3.085 3.085,3.085 C -1.381,3.085 0,1.704 0,0" /></g><g
           transform="translate(179.7527,46.9041)"
           id="g6028"><path
             id="path6030"
             style="fill:#1689d6;fill-opacity:1;fill-rule:nonzero;stroke:none"
             d="m 0,0 c 0,-1.484 -1.203,-2.687 -2.687,-2.687 -1.484,0 -2.687,1.203 -2.687,2.687 0,1.484 1.203,2.687 2.687,2.687 C -1.203,2.687 0,1.484 0,0" /></g><g
           transform="translate(159.2769,37.7087)"
           id="g6032"><path
             id="path6034"
             style="fill:#1689d6;fill-opacity:1;fill-rule:nonzero;stroke:none"
             d="m 0,0 c 0,-1.393 -1.129,-2.521 -2.521,-2.521 -1.393,0 -2.522,1.128 -2.522,2.521 0,1.393 1.129,2.521 2.522,2.521 C -1.129,2.521 0,1.393 0,0" /></g><g
           transform="translate(143.3097,34.2121)"
           id="g6036"><path
             id="path6038"
             style="fill:#1689d6;fill-opacity:1;fill-rule:nonzero;stroke:none"
             d="m 0,0 c 0,-1.468 -1.19,-2.659 -2.659,-2.659 -1.468,0 -2.659,1.191 -2.659,2.659 0,1.468 1.191,2.659 2.659,2.659 C -1.19,2.659 0,1.468 0,0" /></g><g
           transform="translate(133.2985,33.0094)"
           id="g6040"><path
             id="path6042"
             style="fill:#1689d6;fill-opacity:1;fill-rule:nonzero;stroke:none"
             d="m 0,0 c 0,-1.706 -1.383,-3.09 -3.09,-3.09 -1.706,0 -3.09,1.384 -3.09,3.09 0,1.706 1.384,3.09 3.09,3.09 C -1.383,3.09 0,1.706 0,0" /></g><g
           transform="translate(116.551,34.3243)"
           id="g6044"><path
             id="path6046"
             style="fill:#1689d6;fill-opacity:1;fill-rule:nonzero;stroke:none"
             d="m 0,0 c 0,-1.149 -0.931,-2.08 -2.08,-2.08 -1.149,0 -2.08,0.931 -2.08,2.08 0,1.149 0.931,2.08 2.08,2.08 C -0.931,2.08 0,1.149 0,0" /></g><g
           transform="translate(107.2989,35.282)"
           id="g6048"><path
             id="path6050"
             style="fill:#1689d6;fill-opacity:1;fill-rule:nonzero;stroke:none"
             d="m 0,0 c 0,-0.631 -0.511,-1.142 -1.142,-1.142 -0.63,0 -1.141,0.511 -1.141,1.142 0,0.631 0.511,1.142 1.141,1.142 C -0.511,1.142 0,0.631 0,0" /></g><g
           transform="translate(92.9644,40.4461)"
           id="g6052"><path
             id="path6054"
             style="fill:#1689d6;fill-opacity:1;fill-rule:nonzero;stroke:none"
             d="m 0,0 c 0,-0.708 -0.574,-1.283 -1.283,-1.283 -0.708,0 -1.282,0.575 -1.282,1.283 0,0.708 0.574,1.283 1.282,1.283 C -0.574,1.283 0,0.708 0,0" /></g><g
           transform="translate(84.0948,45.3996)"
           id="g6056"><path
             id="path6058"
             style="fill:#1689d6;fill-opacity:1;fill-rule:nonzero;stroke:none"
             d="m 0,0 c 0,-1.49 -1.208,-2.698 -2.698,-2.698 -1.49,0 -2.698,1.208 -2.698,2.698 0,1.49 1.208,2.698 2.698,2.698 C -1.208,2.698 0,1.49 0,0" /></g><g
           transform="translate(77.9014,48.7161)"
           id="g6060"><path
             id="path6062"
             style="fill:#1689d6;fill-opacity:1;fill-rule:nonzero;stroke:none"
             d="m 0,0 c 0,-0.951 -0.771,-1.721 -1.721,-1.721 -0.951,0 -1.722,0.77 -1.722,1.721 0,0.951 0.771,1.721 1.722,1.721 C -0.771,1.721 0,0.951 0,0" /></g><g
           transform="translate(65.4277,58.9391)"
           id="g6064"><path
             id="path6066"
             style="fill:#1689d6;fill-opacity:1;fill-rule:nonzero;stroke:none"
             d="m 0,0 c 0,-1.308 -1.06,-2.367 -2.367,-2.367 -1.308,0 -2.368,1.059 -2.368,2.367 0,1.308 1.06,2.367 2.368,2.367 C -1.06,2.367 0,1.308 0,0" /></g><g
           transform="translate(59.8575,64.4002)"
           id="g6068"><path
             id="path6070"
             style="fill:#1689d6;fill-opacity:1;fill-rule:nonzero;stroke:none"
             d="m 0,0 c 0,-1.247 -1.011,-2.258 -2.258,-2.258 -1.248,0 -2.259,1.011 -2.259,2.258 0,1.247 1.011,2.258 2.259,2.258 C -1.011,2.258 0,1.247 0,0" /></g><g
           transform="translate(52.3843,72.4187)"
           id="g6072"><path
             id="path6074"
             style="fill:#1689d6;fill-opacity:1;fill-rule:nonzero;stroke:none"
             d="m 0,0 c 0,-0.777 -0.63,-1.407 -1.407,-1.407 -0.777,0 -1.407,0.63 -1.407,1.407 0,0.777 0.63,1.407 1.407,1.407 C -0.63,1.407 0,0.777 0,0" /></g><g
           transform="translate(42.1831,93.9256)"
           id="g6076"><path
             id="path6078"
             style="fill:#1689d6;fill-opacity:1;fill-rule:nonzero;stroke:none"
             d="m 0,0 c 0,-1.529 -1.24,-2.769 -2.769,-2.769 -1.529,0 -2.769,1.24 -2.769,2.769 0,1.529 1.24,2.769 2.769,2.769 C -1.24,2.769 0,1.529 0,0" /></g><g
           transform="translate(38.2054,109.2593)"
           id="g6080"><path
             id="path6082"
             style="fill:#1689d6;fill-opacity:1;fill-rule:nonzero;stroke:none"
             d="m 0,0 c 0,-1.554 -1.26,-2.815 -2.815,-2.815 -1.554,0 -2.814,1.261 -2.814,2.815 0,1.554 1.26,2.815 2.814,2.815 C -1.26,2.815 0,1.554 0,0" /></g><g
           transform="translate(36.5841,116.5327)"
           id="g6084"><path
             id="path6086"
             style="fill:#1689d6;fill-opacity:1;fill-rule:nonzero;stroke:none"
             d="m 0,0 c 0,-1.554 -1.26,-2.814 -2.814,-2.814 -1.554,0 -2.814,1.26 -2.814,2.814 0,1.554 1.26,2.814 2.814,2.814 C -1.26,2.814 0,1.554 0,0" /></g><g
           transform="translate(34.169,135.7178)"
           id="g6088"><path
             id="path6090"
             style="fill:#1689d6;fill-opacity:1;fill-rule:nonzero;stroke:none"
             d="m 0,0 c 0,-0.641 -0.52,-1.161 -1.161,-1.161 -0.641,0 -1.161,0.52 -1.161,1.161 0,0.641 0.52,1.161 1.161,1.161 C -0.52,1.161 0,0.641 0,0" /></g><g
           transform="translate(35.959,130.9317)"
           id="g6092"><path
             id="path6094"
             style="fill:#1689d6;fill-opacity:1;fill-rule:nonzero;stroke:none"
             d="m 0,0 c 0,-1.592 -1.291,-2.883 -2.883,-2.883 -1.592,0 -2.883,1.291 -2.883,2.883 0,1.592 1.291,2.883 2.883,2.883 C -1.291,2.883 0,1.592 0,0" /></g><g
           transform="translate(37.0852,147.2876)"
           id="g6096"><path
             id="path6098"
             style="fill:#1689d6;fill-opacity:1;fill-rule:nonzero;stroke:none"
             d="m 0,0 c 0,-1.365 -1.107,-2.472 -2.472,-2.472 -1.365,0 -2.472,1.107 -2.472,2.472 0,1.365 1.107,2.472 2.472,2.472 C -1.107,2.472 0,1.365 0,0" /></g><g
           transform="translate(38.0872,152.8441)"
           id="g6100"><path
             id="path6102"
             style="fill:#1689d6;fill-opacity:1;fill-rule:nonzero;stroke:none"
             d="m 0,0 c 0,-1.249 -1.013,-2.262 -2.262,-2.262 -1.25,0 -2.263,1.013 -2.263,2.262 0,1.249 1.013,2.262 2.263,2.262 C -1.013,2.262 0,1.249 0,0" /></g><g
           transform="translate(40.4171,162.6258)"
           id="g6104"><path
             id="path6106"
             style="fill:#1689d6;fill-opacity:1;fill-rule:nonzero;stroke:none"
             d="m 0,0 c 0,-0.78 -0.632,-1.412 -1.412,-1.412 -0.78,0 -1.412,0.632 -1.412,1.412 0,0.78 0.632,1.412 1.412,1.412 C -0.632,1.412 0,0.78 0,0" /></g><g
           transform="translate(39.7528,159.3412)"
           id="g6108"><path
             id="path6110"
             style="fill:#1689d6;fill-opacity:1;fill-rule:nonzero;stroke:none"
             d="m 0,0 c 0,-0.887 -0.719,-1.606 -1.606,-1.606 -0.887,0 -1.606,0.719 -1.606,1.606 0,0.887 0.719,1.606 1.606,1.606 C -0.719,1.606 0,0.887 0,0" /></g><g
           transform="translate(43.6283,167.7525)"
           id="g6112"><path
             id="path6114"
             style="fill:#1689d6;fill-opacity:1;fill-rule:nonzero;stroke:none"
             d="m 0,0 c 0,-1.367 -1.108,-2.475 -2.475,-2.475 -1.367,0 -2.475,1.108 -2.475,2.475 0,1.367 1.108,2.475 2.475,2.475 C -1.108,2.475 0,1.367 0,0" /></g><g
           transform="translate(52.4261,184.5416)"
           id="g6116"><path
             id="path6118"
             style="fill:#1689d6;fill-opacity:1;fill-rule:nonzero;stroke:none"
             d="m 0,0 c 0,-0.748 -0.606,-1.355 -1.355,-1.355 -0.748,0 -1.354,0.607 -1.354,1.355 0,0.748 0.606,1.355 1.354,1.355 C -0.606,1.355 0,0.748 0,0" /></g><g
           transform="translate(58.0269,190.8921)"
           id="g6120"><path
             id="path6122"
             style="fill:#1689d6;fill-opacity:1;fill-rule:nonzero;stroke:none"
             d="m 0,0 c 0,-1.075 -0.872,-1.947 -1.947,-1.947 -1.076,0 -1.948,0.872 -1.948,1.947 0,1.075 0.872,1.947 1.948,1.947 C -0.872,1.947 0,1.075 0,0" /></g><g
           transform="translate(70.1333,203.0467)"
           id="g6124"><path
             id="path6126"
             style="fill:#1689d6;fill-opacity:1;fill-rule:nonzero;stroke:none"
             d="m 0,0 c 0,-1.046 -0.848,-1.895 -1.895,-1.895 -1.046,0 -1.894,0.849 -1.894,1.895 0,1.046 0.848,1.895 1.894,1.895 C -0.848,1.895 0,1.046 0,0" /></g><g
           transform="translate(76.5404,207.0182)"
           id="g6128"><path
             id="path6130"
             style="fill:#1689d6;fill-opacity:1;fill-rule:nonzero;stroke:none"
             d="m 0,0 c 0,-1.427 -1.157,-2.584 -2.584,-2.584 -1.428,0 -2.585,1.157 -2.585,2.584 0,1.427 1.157,2.584 2.585,2.584 C -1.157,2.584 0,1.427 0,0" /></g><g
           transform="translate(83.5197,211.8275)"
           id="g6132"><path
             id="path6134"
             style="fill:#1689d6;fill-opacity:1;fill-rule:nonzero;stroke:none"
             d="m 0,0 c 0,-0.812 -0.658,-1.47 -1.47,-1.47 -0.812,0 -1.47,0.658 -1.47,1.47 0,0.812 0.658,1.47 1.47,1.47 C -0.658,1.47 0,0.812 0,0" /></g><g
           transform="translate(97.2307,217.913)"
           id="g6136"><path
             id="path6138"
             style="fill:#1689d6;fill-opacity:1;fill-rule:nonzero;stroke:none"
             d="m 0,0 c 0,-0.674 -0.546,-1.22 -1.22,-1.22 -0.674,0 -1.22,0.546 -1.22,1.22 0,0.674 0.546,1.22 1.22,1.22 C -0.546,1.22 0,0.674 0,0" /></g><g
           transform="translate(103.4888,220.0642)"
           id="g6140"><path
             id="path6142"
             style="fill:#1689d6;fill-opacity:1;fill-rule:nonzero;stroke:none"
             d="m 0,0 c 0,-0.806 -0.653,-1.46 -1.46,-1.46 -0.806,0 -1.459,0.654 -1.459,1.46 0,0.806 0.653,1.46 1.459,1.46 C -0.653,1.46 0,0.806 0,0" /></g><g
           transform="translate(119.0862,223.0966)"
           id="g6144"><path
             id="path6146"
             style="fill:#1689d6;fill-opacity:1;fill-rule:nonzero;stroke:none"
             d="m 0,0 c 0,-1.512 -1.226,-2.738 -2.738,-2.738 -1.511,0 -2.737,1.226 -2.737,2.738 0,1.512 1.226,2.738 2.737,2.738 C -1.226,2.738 0,1.512 0,0" /></g><g
           transform="translate(126.749,223.57)"
           id="g6148"><path
             id="path6150"
             style="fill:#1689d6;fill-opacity:1;fill-rule:nonzero;stroke:none"
             d="m 0,0 c 0,-1.386 -1.124,-2.51 -2.51,-2.51 -1.387,0 -2.511,1.124 -2.511,2.51 0,1.386 1.124,2.51 2.511,2.51 C -1.124,2.51 0,1.386 0,0" /></g><g
           transform="translate(142.5541,222.6637)"
           id="g6152"><path
             id="path6154"
             style="fill:#1689d6;fill-opacity:1;fill-rule:nonzero;stroke:none"
             d="m 0,0 c 0,-1.358 -1.101,-2.458 -2.458,-2.458 -1.358,0 -2.458,1.1 -2.458,2.458 0,1.358 1.1,2.458 2.458,2.458 C -1.101,2.458 0,1.358 0,0" /></g><g
           transform="translate(159.6713,218.6437)"
           id="g6156"><path
             id="path6158"
             style="fill:#1689d6;fill-opacity:1;fill-rule:nonzero;stroke:none"
             d="m 0,0 c 0,-0.9 -0.73,-1.63 -1.63,-1.63 -0.901,0 -1.631,0.73 -1.631,1.63 0,0.9 0.73,1.63 1.631,1.63 C -0.73,1.63 0,0.9 0,0" /></g><g
           transform="translate(171.2612,214.6561)"
           id="g6160"><path
             id="path6162"
             style="fill:#1689d6;fill-opacity:1;fill-rule:nonzero;stroke:none"
             d="m 0,0 c 0,-1.14 -0.924,-2.064 -2.064,-2.064 -1.139,0 -2.063,0.924 -2.063,2.064 0,1.14 0.924,2.064 2.063,2.064 C -0.924,2.064 0,1.14 0,0" /></g><g
           transform="translate(184.5551,207.0167)"
           id="g6164"><path
             id="path6166"
             style="fill:#1689d6;fill-opacity:1;fill-rule:nonzero;stroke:none"
             d="m 0,0 c 0,-1.625 -1.317,-2.942 -2.942,-2.942 -1.625,0 -2.942,1.317 -2.942,2.942 0,1.625 1.317,2.942 2.942,2.942 C -1.317,2.942 0,1.625 0,0" /></g><g
           transform="translate(197.4965,196.5025)"
           id="g6168"><path
             id="path6170"
             style="fill:#1689d6;fill-opacity:1;fill-rule:nonzero;stroke:none"
             d="m 0,0 c 0,-1.707 -1.384,-3.09 -3.09,-3.09 -1.707,0 -3.091,1.383 -3.091,3.09 0,1.707 1.384,3.09 3.091,3.09 C -1.384,3.09 0,1.707 0,0" /></g><g
           transform="translate(200.2872,191.6927)"
           id="g6172"><path
             id="path6174"
             style="fill:#1689d6;fill-opacity:1;fill-rule:nonzero;stroke:none"
             d="m 0,0 c 0,-0.592 -0.48,-1.071 -1.071,-1.071 -0.592,0 -1.072,0.479 -1.072,1.071 0,0.592 0.48,1.071 1.072,1.071 C -0.48,1.071 0,0.592 0,0" /></g><g
           transform="translate(214.6852,173.5287)"
           id="g6176"><path
             id="path6178"
             style="fill:#1689d6;fill-opacity:1;fill-rule:nonzero;stroke:none"
             d="m 0,0 c 0,-1.469 -1.19,-2.659 -2.659,-2.659 -1.469,0 -2.659,1.19 -2.659,2.659 0,1.469 1.19,2.659 2.659,2.659 C -1.19,2.659 0,1.469 0,0" /></g><g
           transform="translate(222.7759,153.3283)"
           id="g6180"><path
             id="path6182"
             style="fill:#1689d6;fill-opacity:1;fill-rule:nonzero;stroke:none"
             d="m 0,0 c 0,-1.479 -1.199,-2.678 -2.678,-2.678 -1.479,0 -2.678,1.199 -2.678,2.678 0,1.479 1.199,2.678 2.678,2.678 C -1.199,2.678 0,1.479 0,0" /></g><g
           transform="translate(222.0085,151.9886)"
           id="g6184"><path
             id="path6186"
             style="fill:#1689d6;fill-opacity:1;fill-rule:nonzero;stroke:none"
             d="m 0,0 c 0,-0.791 -0.641,-1.432 -1.432,-1.432 -0.79,0 -1.431,0.641 -1.431,1.432 0,0.791 0.641,1.432 1.431,1.432 C -0.641,1.432 0,0.791 0,0" /></g><g
           transform="translate(223.7363,138.0507)"
           id="g6188"><path
             id="path6190"
             style="fill:#1689d6;fill-opacity:1;fill-rule:nonzero;stroke:none"
             d="m 0,0 c 0,-0.637 -0.517,-1.154 -1.154,-1.154 -0.637,0 -1.154,0.517 -1.154,1.154 0,0.637 0.517,1.154 1.154,1.154 C -0.517,1.154 0,0.637 0,0" /></g><g
           transform="translate(226.3531,128.4059)"
           id="g6192"><path
             id="path6194"
             style="fill:#1689d6;fill-opacity:1;fill-rule:nonzero;stroke:none"
             d="m 0,0 c 0,-1.469 -1.191,-2.66 -2.66,-2.66 -1.469,0 -2.659,1.191 -2.659,2.66 0,1.469 1.19,2.66 2.659,2.66 C -1.191,2.66 0,1.469 0,0" /></g></g></g></g></svg>